<svg width="97" height="23" viewBox="0 0 97 23" fill="none" xmlns="http://www.w3.org/2000/svg">
<path d="M0.376953 22V9.60742C0.376953 6.88281 1.10449 4.71484 2.55957 3.10352C4.01465 1.48242 5.94824 0.671875 8.36035 0.671875C10.7725 0.671875 12.7109 1.48242 14.1758 3.10352C15.6406 4.72461 16.373 6.89258 16.373 9.60742V22H11.1729V14.2363H6.5V9.31445H11.1729V9.06543C11.1729 8.05957 10.9189 7.25879 10.4111 6.66309C9.90332 6.06738 9.21973 5.76953 8.36035 5.76953C7.45215 5.76953 6.75879 6.07715 6.28027 6.69238C5.81152 7.29785 5.57715 8.18164 5.57715 9.34375V22H0.376953ZM19.1562 1.02344H24.3857V14.9541C24.3857 15.667 24.5664 16.2041 24.9277 16.5654C25.2988 16.9268 25.8457 17.1074 26.5684 17.1074H30.626V22H26.4805C24 22 22.1592 21.4287 20.958 20.2861C19.7568 19.1338 19.1562 17.3662 19.1562 14.9834V1.02344ZM32.3838 22V1.02344H37.5986V22H32.3838ZM40.1914 22V16.9902H47.4131C47.833 16.9902 48.1553 16.9023 48.3799 16.7266C48.6143 16.5508 48.7314 16.2969 48.7314 15.9648C48.7314 15.6719 48.6143 15.3838 48.3799 15.1006C48.1455 14.8076 47.7842 14.5098 47.2959 14.207L43.2676 11.7754C42.3496 11.209 41.6172 10.4814 41.0703 9.59277C40.5234 8.69434 40.25 7.77148 40.25 6.82422C40.25 5.90625 40.4062 5.07617 40.7188 4.33398C41.0312 3.58203 41.4951 2.94238 42.1104 2.41504C42.6865 1.90723 43.3945 1.55078 44.2344 1.3457C45.0742 1.13086 46.4365 1.02344 48.3213 1.02344H53.1113V5.82812H47.6182C46.8564 5.82812 46.3291 5.8916 46.0361 6.01855C45.7529 6.13574 45.6113 6.34082 45.6113 6.63379C45.6113 6.91699 45.7236 7.2002 45.9482 7.4834C46.1729 7.75684 46.5195 8.03516 46.9883 8.31836L50.9287 10.6621C52.0518 11.3457 52.9062 12.1562 53.4922 13.0938C54.0781 14.0312 54.3711 15.0518 54.3711 16.1553C54.3711 17.1025 54.1709 17.9814 53.7705 18.792C53.3701 19.6025 52.8135 20.2617 52.1006 20.7695C51.4756 21.209 50.7725 21.5264 49.9912 21.7217C49.21 21.9072 47.9697 22 46.2705 22H45.9482H40.1914ZM61.5195 11.4678C61.5195 13.04 62.0518 14.3779 63.1162 15.4814C64.1807 16.585 65.46 17.1367 66.9541 17.1367C68.4482 17.1367 69.7178 16.5898 70.7627 15.4961C71.8174 14.3926 72.3447 13.0498 72.3447 11.4678C72.3447 9.88574 71.8223 8.55273 70.7773 7.46875C69.7324 6.375 68.458 5.82812 66.9541 5.82812C65.4404 5.82812 64.1562 6.375 63.1016 7.46875C62.0469 8.5625 61.5195 9.89551 61.5195 11.4678ZM56.1729 11.4971C56.1729 10.042 56.4414 8.66504 56.9785 7.36621C57.5254 6.05762 58.3164 4.87598 59.3516 3.82129C60.377 2.7959 61.5391 2.01465 62.8379 1.47754C64.1367 0.94043 65.5088 0.671875 66.9541 0.671875C68.3994 0.671875 69.7764 0.945313 71.085 1.49219C72.3936 2.03906 73.5557 2.8252 74.5713 3.85059C75.5771 4.86621 76.3486 6.02832 76.8857 7.33691C77.4229 8.64551 77.6914 10.0322 77.6914 11.4971C77.6914 12.9717 77.4229 14.3682 76.8857 15.6865C76.3486 17.0049 75.5771 18.167 74.5713 19.1729C73.5557 20.208 72.3936 20.999 71.085 21.5459C69.7764 22.0928 68.3994 22.3662 66.9541 22.3662C65.5186 22.3662 64.1514 22.0928 62.8525 21.5459C61.5537 20.999 60.3867 20.208 59.3516 19.1729C58.3164 18.1182 57.5254 16.9414 56.9785 15.6426C56.4414 14.3438 56.1729 12.9619 56.1729 11.4971ZM80.0645 22V4.24609C80.0645 3.12305 80.3525 2.23438 80.9287 1.58008C81.5146 0.916016 82.291 0.583984 83.2578 0.583984C84.0586 0.583984 84.7471 0.813477 85.3232 1.27246C85.8994 1.72168 86.5391 2.59082 87.2422 3.87988L89.9961 8.86035C90.5723 9.90527 91.0215 10.7842 91.3438 11.4971C91.6758 12.21 91.9395 12.8691 92.1348 13.4746C92.0176 12.1855 91.9248 11.0186 91.8564 9.97363C91.7979 8.92871 91.7686 8.12793 91.7686 7.57129V1.02344H96.8076V19.4805C96.8076 20.3301 96.5635 21.0186 96.0752 21.5459C95.5967 22.0732 94.9619 22.3369 94.1709 22.3369C93.4971 22.3369 92.9209 22.1611 92.4424 21.8096C91.9736 21.458 91.4609 20.7793 90.9043 19.7734L86.8174 12.3906C86.7295 12.2344 86.5977 11.9951 86.4219 11.6729C85.5137 10.042 84.8887 8.72363 84.5469 7.71777C84.7422 9.11426 84.8838 10.3887 84.9717 11.541C85.0693 12.6836 85.1182 13.7578 85.1182 14.7637V22H80.0645Z" fill="black"/>
</svg>
