<svg width="53" height="53" viewBox="0 0 53 53" fill="none" xmlns="http://www.w3.org/2000/svg">
<path d="M44.4927 1.38309C44.2512 0.987847 43.8211 0.746857 43.3584 0.746857H9.64159C9.17831 0.746857 8.74878 0.987847 8.50727 1.38309L0.195196 14.9798C-0.0826692 15.4343 -0.0624136 16.0108 0.246615 16.445L25.307 51.6274L25.3158 51.6529L25.3236 51.6503L25.4903 51.8845C25.7396 52.2346 26.1432 52.4428 26.5732 52.4428H26.5748C27.0053 52.4423 27.4094 52.233 27.6582 51.8814L27.8239 51.6477L27.8311 51.6498L27.84 51.6243L52.7554 16.4418C53.0624 16.0082 53.0821 15.4332 52.8048 14.9798L44.4927 1.38309ZM29.489 3.40606H41.4995L38.2005 13.0644L29.489 3.40606ZM35.7636 14.3327H17.3481L26.5052 4.06826L35.7636 14.3327ZM14.8618 13.1256L11.515 3.40658H23.5333L14.8618 13.1256ZM12.4654 14.3327H3.70721L9.30919 5.16933L12.4654 14.3327ZM36.8594 16.9919L26.5685 47.1213L16.1935 16.9929L36.8594 16.9919ZM43.7017 5.18647L49.2928 14.3327H40.5771L43.7017 5.18647ZM3.90146 16.9919H13.3806L22.2515 42.7544L3.90146 16.9919ZM39.6687 16.9919H49.1073L30.8757 42.7368L39.6687 16.9919Z" fill="black"/>
</svg>
