<svg width="61" height="61" viewBox="0 0 61 61" fill="none" xmlns="http://www.w3.org/2000/svg">
<g clip-path="url(#clip0)">
<path d="M24.4751 31.3366C29.3699 31.3366 33.3376 27.3689 33.3376 22.474C33.3376 17.5792 29.3699 13.6115 24.4751 13.6115C19.5803 13.6115 15.6125 17.5792 15.6125 22.474C15.6182 27.3663 19.5828 31.3309 24.4751 31.3366ZM24.4751 16.2287C27.9237 16.2287 30.7194 19.0243 30.7194 22.473C30.7194 25.9217 27.9237 28.7173 24.4751 28.7173C21.0264 28.7173 18.2308 25.9217 18.2308 22.473C18.2348 19.0259 21.0279 16.2328 24.4751 16.2287Z" fill="black"/>
<path d="M54.4546 6.27957H6.54551C2.93219 6.28366 0.00409095 9.21176 0 12.8251V48.1709C0.00409095 51.7842 2.93219 54.7123 6.54551 54.7164H54.4546C58.0679 54.7123 60.996 51.7842 61.0001 48.1709V12.8251C60.996 9.21176 58.0679 6.28366 54.4546 6.27957ZM6.54551 8.89778H54.4546C56.6223 8.90033 58.3793 10.6569 58.3819 12.8251V38.6344L50.5493 27.5366C49.3343 25.8159 47.3655 24.7845 45.2592 24.766C43.1523 24.7476 41.1657 25.7438 39.921 27.4436L31.0058 39.6157C29.7647 41.317 27.4006 41.7332 25.6533 40.5581L18.9881 36.098C16.799 34.6293 13.9419 34.6196 11.7431 36.0739L2.61872 42.1505V12.8251C2.62127 10.6574 4.37782 8.90033 6.54551 8.89778ZM54.4546 52.0982H6.54551C4.37731 52.0956 2.62076 50.3386 2.61821 48.1709V45.297L13.1882 38.258C14.507 37.3871 16.2191 37.3938 17.5312 38.2738L24.1964 42.7345C27.1092 44.693 31.0493 43.9986 33.1172 41.1626L42.0324 28.9905C42.779 27.9703 43.971 27.3725 45.2351 27.3837C46.4992 27.395 47.6805 28.0137 48.4092 29.0462L58.3809 43.1748V48.1709C58.3783 50.3386 56.6218 52.0951 54.4546 52.0982Z" fill="black"/>
</g>
<defs>
<clipPath id="clip0">
<rect width="61" height="61" fill="white"/>
</clipPath>
</defs>
</svg>
