<svg width="38" height="30" viewBox="0 0 38 30" fill="none" xmlns="http://www.w3.org/2000/svg">
<path d="M33.3611 0.540649H4.6468C2.08359 0.540649 0 2.62424 0 5.18745V24.8125C0 27.3757 2.08359 29.4593 4.6468 29.4593H33.3532C35.9164 29.4593 38 27.3757 38 24.8125V5.19531C38.0079 2.6321 35.9243 0.540649 33.3611 0.540649ZM35.885 24.8125C35.885 26.2042 34.7527 27.3364 33.3611 27.3364H4.6468C3.25512 27.3364 2.12291 26.2042 2.12291 24.8125V5.19531C2.12291 3.80363 3.25512 2.67142 4.6468 2.67142H33.3532C34.7449 2.67142 35.8771 3.80363 35.8771 5.19531V24.8125H35.885Z" fill="black"/>
<path d="M23.9652 14.7563L33.2588 6.42194C33.6912 6.02881 33.7306 5.36049 33.3374 4.92018C32.9443 4.48774 32.276 4.44843 31.8357 4.84156L19.0196 16.3446L16.5193 14.1116C16.5114 14.1037 16.5036 14.0959 16.5036 14.088C16.4485 14.033 16.3935 13.9858 16.3306 13.9386L6.15638 4.8337C5.71607 4.44056 5.04775 4.47988 4.65462 4.92018C4.26149 5.36049 4.3008 6.02881 4.74111 6.42194L14.1448 14.8271L4.78042 23.5939C4.35584 23.9949 4.33225 24.6632 4.73324 25.0956C4.94553 25.3158 5.22859 25.4337 5.51164 25.4337C5.77111 25.4337 6.03058 25.3394 6.235 25.1507L15.7409 16.2581L18.3198 18.5618C18.5243 18.7427 18.7759 18.8291 19.0275 18.8291C19.2791 18.8291 19.5385 18.7348 19.7351 18.554L22.3848 16.1794L31.8357 25.1585C32.0401 25.3551 32.3074 25.4495 32.5669 25.4495C32.8499 25.4495 33.1251 25.3394 33.3374 25.1192C33.7384 24.6947 33.7227 24.0185 33.2981 23.6175L23.9652 14.7563Z" fill="black"/>
</svg>
