<svg width="56" height="55" viewBox="0 0 56 55" fill="none" xmlns="http://www.w3.org/2000/svg">
<g clip-path="url(#clip0)">
<path d="M1.33333 19.2909C2.06979 19.2909 2.66667 18.7047 2.66667 17.9814V6.54762C2.66927 4.37872 4.45833 2.62161 6.66667 2.61905H18.3083C19.0448 2.61905 19.6417 2.03283 19.6417 1.30952C19.6417 0.586216 19.0448 0 18.3083 0H6.66667C2.98646 0.00409226 0.00416667 2.93313 0 6.54762V17.9814C0 18.7047 0.596875 19.2909 1.33333 19.2909Z" fill="black"/>
<path d="M49.3334 0H37.6917C36.9553 0 36.3584 0.586216 36.3584 1.30952C36.3584 2.03283 36.9553 2.61905 37.6917 2.61905H49.3334C51.5417 2.62161 53.3308 4.37872 53.3334 6.54762V17.9814C53.3334 18.7047 53.9303 19.2909 54.6667 19.2909C55.4032 19.2909 56.0001 18.7047 56.0001 17.9814V6.54762C55.9959 2.93313 53.0136 0.00409226 49.3334 0Z" fill="black"/>
<path d="M54.6667 35.7091C53.9303 35.7091 53.3334 36.2953 53.3334 37.0186V48.4524C53.3308 50.6213 51.5417 52.3784 49.3334 52.381H37.6917C36.9553 52.381 36.3584 52.9672 36.3584 53.6905C36.3584 54.4138 36.9553 55 37.6917 55H49.3334C53.0136 54.9959 55.9959 52.0669 56.0001 48.4524V37.0186C56.0001 36.2953 55.4032 35.7091 54.6667 35.7091Z" fill="black"/>
<path d="M18.3083 52.381H6.66667C4.45833 52.3784 2.66927 50.6213 2.66667 48.4524V37.0186C2.66667 36.2953 2.06979 35.7091 1.33333 35.7091C0.596875 35.7091 0 36.2953 0 37.0186V48.4524C0.00416667 52.0669 2.98646 54.9959 6.66667 55H18.3083C19.0448 55 19.6417 54.4138 19.6417 53.6905C19.6417 52.9672 19.0448 52.381 18.3083 52.381Z" fill="black"/>
<path d="M27.9999 17.1998C22.2078 17.1998 17.5125 21.8113 17.5125 27.5C17.5125 33.1888 22.2078 37.8002 27.9999 37.8002C33.7921 37.8002 38.4874 33.1888 38.4874 27.5C38.4812 21.8138 33.7895 17.2059 27.9999 17.1998ZM27.9999 35.1812C23.6807 35.1812 20.1791 31.7422 20.1791 27.5C20.1791 23.2579 23.6807 19.8188 27.9999 19.8188C32.3192 19.8188 35.8208 23.2579 35.8208 27.5C35.8161 31.7401 32.3171 35.1766 27.9999 35.1812Z" fill="black"/>
</g>
<defs>
<clipPath id="clip0">
<rect width="56" height="55" fill="white"/>
</clipPath>
</defs>
</svg>
