<svg width="54" height="54" viewBox="0 0 54 54" fill="none" xmlns="http://www.w3.org/2000/svg">
<path d="M47.9386 10.4363H39.1683L37.8263 7.4862C36.8399 5.32547 34.6849 3.93802 32.3096 3.93423H21.0481C18.6723 3.93755 16.5168 5.32547 15.5305 7.4862L14.1889 10.4363H6.06122C2.71524 10.4401 0.00378826 13.1515 0 16.4975V43.9383C0.00378826 47.2843 2.71524 49.9957 6.06122 49.9995H47.9386C51.2845 49.9957 53.996 47.2843 53.9998 43.9383V16.4975C53.996 13.1515 51.2845 10.4401 47.9386 10.4363ZM51.5753 43.9383C51.5729 45.9461 49.9463 47.5726 47.9386 47.575H6.06122C4.05344 47.5726 2.42686 45.9461 2.42449 43.9383V16.4975C2.42686 14.4898 4.05344 12.8632 6.06122 12.8608H14.9693C15.4447 12.8608 15.8757 12.5828 16.0726 12.1505L17.7371 8.48962C18.3295 7.19309 19.6227 6.36062 21.0481 6.35872H32.3096C33.7345 6.36109 35.0272 7.19356 35.6191 8.49009L37.2836 12.151C37.4806 12.5833 37.912 12.8613 38.3869 12.8613H47.9381C49.9454 12.8636 51.5725 14.4907 51.5748 16.498L51.5753 43.9383Z" fill="black"/>
<path d="M26.6784 14.5414C18.5171 14.5414 11.9014 21.1576 11.9014 29.3189C11.9014 37.4798 18.5171 44.096 26.6784 44.096C34.8398 44.096 41.456 37.4798 41.456 29.3189C41.4465 21.1613 34.836 14.5508 26.6784 14.5414ZM26.6784 41.6715C19.8562 41.6715 14.3259 36.1411 14.3259 29.3189C14.3259 22.4967 19.8562 16.9658 26.6784 16.9658C33.5006 16.9658 39.0315 22.4967 39.0315 29.3189C39.0234 36.1378 33.4978 41.6639 26.6784 41.6715Z" fill="black"/>
<path d="M26.6784 22.7798C23.0673 22.7798 20.1399 25.7072 20.1399 29.3184C20.1399 32.93 23.0673 35.8574 26.6784 35.8574C30.2901 35.8574 33.2174 32.93 33.2174 29.3184C33.2132 25.7091 30.2882 22.7836 26.6784 22.7798ZM26.6784 33.4329C24.4064 33.4329 22.5644 31.5909 22.5644 29.3189C22.5644 27.0464 24.4064 25.2043 26.6784 25.2043C28.9509 25.2043 30.793 27.0464 30.793 29.3189C30.7901 31.5899 28.95 33.4305 26.6784 33.4329Z" fill="black"/>
</svg>
