<svg width="24" height="24" viewBox="0 0 24 24" fill="none" xmlns="http://www.w3.org/2000/svg">
<path d="M23.9949 12.3516C24.1908 5.50372 18.6478 -0.0982176 11.8213 0.00105526C5.25105 0.0966039 -0.0499218 5.52274 0.000354696 12.0935C0.0364328 16.8019 2.78424 20.8642 6.75888 22.7971C6.98879 22.9089 7.25496 22.7351 7.24535 22.4795C7.21638 21.7075 7.24134 20.8821 7.39583 20.2186C7.54789 19.5653 8.14451 17.0389 8.53677 15.3793C8.7277 14.5713 8.75074 13.7323 8.597 12.9164C8.54655 12.6487 8.51001 12.3342 8.51001 11.9846C8.51001 10.211 9.538 8.88685 10.818 8.88685C11.9062 8.88685 12.4319 9.7039 12.4319 10.6836C12.4319 11.778 11.7351 13.4142 11.3755 14.9306C11.075 16.2002 12.0122 17.2355 13.2643 17.2355C15.5314 17.2355 17.2741 14.845 17.2741 11.3944C17.2741 8.34044 15.0796 6.20508 11.9461 6.20508C8.31681 6.20508 6.18652 8.92729 6.18652 11.7406C6.18652 12.8368 6.60887 14.0124 7.13578 14.6515C7.23994 14.7778 7.2553 14.8885 7.22429 15.0173C7.12746 15.4202 6.91227 16.2866 6.87003 16.4639C6.81434 16.6974 6.68515 16.7469 6.44349 16.6345C4.85029 15.8929 3.85437 13.5638 3.85437 11.693C3.85437 7.66933 6.77779 3.97424 12.2823 3.97424C16.7071 3.97424 20.1458 7.12723 20.1458 11.3411C20.1458 15.7371 17.374 19.2749 13.5268 19.2749C12.5101 19.2749 11.5413 18.8595 10.9718 18.2961C10.7966 18.1229 10.5005 18.2018 10.438 18.4401C10.2374 19.2043 9.91315 20.4404 9.8087 20.8424C9.62063 21.5657 9.22429 22.408 8.82697 23.1416C8.72141 23.3366 8.82819 23.5774 9.04309 23.6318C10.024 23.8806 11.0529 24.009 12.1134 23.9992C18.4102 23.9408 23.8149 18.6461 23.9949 12.3516Z" fill="black"/>
</svg>
