<?xml version="1.0" encoding="iso-8859-1"?>
<!-- Generator: Adobe Illustrator 19.0.0, SVG Export Plug-In . SVG Version: 6.00 Build 0)  -->
<svg version="1.1" id="Capa_1" xmlns="http://www.w3.org/2000/svg" xmlns:xlink="http://www.w3.org/1999/xlink" x="0px" y="0px"
	 viewBox="0 0 511.999 511.999" style="enable-background:new 0 0 511.999 511.999;" xml:space="preserve">
<path style="fill:#5D5360;" d="M140.387,78.45h-33.032c-9.121,0-16.516,7.394-16.516,16.516v24.774h66.065V94.966
	C156.903,85.844,149.509,78.45,140.387,78.45z"/>
<path style="fill:#4B3F4E;" d="M115.613,78.45h-8.258c-9.122,0-16.516,7.395-16.516,16.516v24.774h66.065V94.966H132.13
	C123.007,94.966,115.613,87.571,115.613,78.45L115.613,78.45z"/>
<path style="fill:#5D5360;" d="M462.452,441.804H49.548C22.184,441.804,0,419.621,0,392.256V161.03
	c0-27.365,22.184-49.548,49.548-49.548h412.903c27.365,0,49.548,22.184,49.548,49.548v231.226
	C512,419.621,489.816,441.804,462.452,441.804z"/>
<g>
	<circle style="fill:#6F6571;" cx="421.16" cy="301.418" r="24.774"/>
	<path style="fill:#6F6571;" d="M369.47,210.579L342.86,89.642c-2.499-11.359-12.564-19.45-24.195-19.45h-92.297
		c-11.631,0-21.697,8.092-24.196,19.452l-26.516,120.537L369.47,210.579z"/>
</g>
<circle style="fill:#4B3F4E;" cx="272.52" cy="301.418" r="140.39"/>
<circle style="fill:#867E88;" cx="272.52" cy="301.418" r="99.1"/>
<g>
	<circle style="fill:#6F6571;" cx="272.52" cy="301.418" r="82.58"/>
	<path style="fill:#6F6571;" d="M57.806,152.772H41.29c-4.565,0-8.258-3.698-8.258-8.258s3.694-8.258,8.258-8.258h16.516
		c4.565,0,8.258,3.698,8.258,8.258S62.371,152.772,57.806,152.772z"/>
</g>
<path style="fill:#5D5360;" d="M272.516,342.708c-22.766,0-41.29-18.524-41.29-41.29c0-22.766,18.524-41.29,41.29-41.29
	s41.29,18.524,41.29,41.29C313.806,324.183,295.282,342.708,272.516,342.708z M272.516,276.643
	c-13.661,0-24.774,11.113-24.774,24.774c0,13.661,11.113,24.774,24.774,24.774s24.774-11.113,24.774-24.774
	C297.29,287.756,286.177,276.643,272.516,276.643z"/>
<path style="fill:#4B3F4E;" d="M66.065,417.03c-18.243,0-33.032-14.789-33.032-33.032V114.362C13.8,121.171,0,139.466,0,161.03
	v231.226c0,27.365,22.184,49.548,49.548,49.548h412.903c18.329,0,34.295-9.979,42.865-24.774H66.065z"/>
<path style="fill:#6F6571;" d="M94.968,400.514L94.968,400.514c-6.841,0-12.387-5.546-12.387-12.387V165.159
	c0-6.841,5.546-12.387,12.387-12.387l0,0c6.841,0,12.387,5.546,12.387,12.387v222.968
	C107.355,394.968,101.809,400.514,94.968,400.514z"/>
<path style="fill:#5D5360;" d="M317.935,127.998h-90.839c-6.841,0-12.387-5.546-12.387-12.387l0,0
	c0-6.841,5.546-12.387,12.387-12.387h90.839c6.841,0,12.387,5.546,12.387,12.387l0,0
	C330.323,122.452,324.777,127.998,317.935,127.998z"/>
<g>
</g>
<g>
</g>
<g>
</g>
<g>
</g>
<g>
</g>
<g>
</g>
<g>
</g>
<g>
</g>
<g>
</g>
<g>
</g>
<g>
</g>
<g>
</g>
<g>
</g>
<g>
</g>
<g>
</g>
</svg>
