<svg width="23" height="23" viewBox="0 0 23 23" fill="none" xmlns="http://www.w3.org/2000/svg">
<path d="M0 1.3126V21.6874C0 22.4123 0.587635 23 1.3126 23H21.6874C22.4123 23 23 22.4124 23 21.6874V1.3126C22.9999 0.587635 22.4123 0 21.6874 0H1.3126C0.587635 0 0 0.587635 0 1.3126ZM10.486 6.27108H6.87651C6.514 6.27108 6.21916 6.56592 6.21916 6.92843V10.4006H3.20751V6.92843C3.20751 4.9054 4.85348 3.25943 6.87651 3.25943H10.4861L10.486 6.27108ZM19.7925 16.0716C19.7925 18.0946 18.1465 19.7406 16.1235 19.7406H12.5139V16.7289H16.1235C16.486 16.7289 16.7808 16.4341 16.7808 16.0716V12.5994H19.7925V16.0716Z" fill="black"/>
</svg>
