<svg width="23" height="23" viewBox="0 0 23 23" fill="none" xmlns="http://www.w3.org/2000/svg">
<path d="M11.5 5.30078C11.2379 5.30078 10.9865 5.19666 10.8012 5.01132C10.6158 4.82598 10.5117 4.57461 10.5117 4.3125V2.15625C10.5117 1.89414 10.6158 1.64277 10.8012 1.45743C10.9865 1.27209 11.2379 1.16797 11.5 1.16797C11.7621 1.16797 12.0135 1.27209 12.1988 1.45743C12.3842 1.64277 12.4883 1.89414 12.4883 2.15625V4.3125C12.4883 4.57461 12.3842 4.82598 12.1988 5.01132C12.0135 5.19666 11.7621 5.30078 11.5 5.30078Z" fill="white"/>
<path d="M11.5 21.832C11.2379 21.832 10.9865 21.7279 10.8012 21.5426C10.6158 21.3572 10.5117 21.1059 10.5117 20.8438V18.6875C10.5117 18.4254 10.6158 18.174 10.8012 17.9887C10.9865 17.8033 11.2379 17.6992 11.5 17.6992C11.7621 17.6992 12.0135 17.8033 12.1988 17.9887C12.3842 18.174 12.4883 18.4254 12.4883 18.6875V20.8438C12.4883 21.1059 12.3842 21.3572 12.1988 21.5426C12.0135 21.7279 11.7621 21.832 11.5 21.832Z" fill="white"/>
<path d="M16.5824 7.40585C16.387 7.40582 16.196 7.34786 16.0335 7.2393C15.871 7.13073 15.7443 6.97643 15.6695 6.79589C15.5947 6.61536 15.5751 6.4167 15.6132 6.22503C15.6512 6.03335 15.7453 5.85727 15.8834 5.71903L17.4081 4.19438C17.5942 4.01307 17.8443 3.91237 18.1041 3.91408C18.364 3.9158 18.6127 4.01978 18.7964 4.20352C18.9802 4.38727 19.0842 4.63599 19.0859 4.89584C19.0876 5.15568 18.9869 5.40575 18.8056 5.5919L17.2809 7.11655C17.1893 7.2084 17.0804 7.28123 16.9605 7.33088C16.8406 7.38052 16.7121 7.406 16.5824 7.40585Z" fill="white"/>
<path d="M4.89295 19.0954C4.69747 19.0953 4.5064 19.0373 4.34388 18.9287C4.18137 18.8201 4.05472 18.6657 3.97995 18.4851C3.90517 18.3045 3.88564 18.1058 3.92382 17.9141C3.96199 17.7224 4.05616 17.5463 4.19441 17.4081L5.71906 15.8834C5.81038 15.7897 5.91941 15.715 6.03982 15.6637C6.16024 15.6124 6.28964 15.5856 6.42051 15.5847C6.55139 15.5839 6.68113 15.609 6.80221 15.6587C6.92329 15.7084 7.0333 15.7816 7.12584 15.8742C7.21839 15.9667 7.29163 16.0767 7.34132 16.1978C7.391 16.3189 7.41614 16.4486 7.41528 16.5795C7.41442 16.7104 7.38757 16.8398 7.3363 16.9602C7.28502 17.0806 7.21033 17.1896 7.11658 17.281L5.59193 18.8056C5.50025 18.8976 5.39131 18.9705 5.27135 19.0202C5.1514 19.07 5.0228 19.0955 4.89295 19.0954Z" fill="white"/>
<path d="M20.8438 12.4883H18.6875C18.4254 12.4883 18.174 12.3842 17.9887 12.1988C17.8033 12.0135 17.6992 11.7621 17.6992 11.5C17.6992 11.2379 17.8033 10.9865 17.9887 10.8012C18.174 10.6158 18.4254 10.5117 18.6875 10.5117H20.8438C21.1059 10.5117 21.3572 10.6158 21.5426 10.8012C21.7279 10.9865 21.832 11.2379 21.832 11.5C21.832 11.7621 21.7279 12.0135 21.5426 12.1988C21.3572 12.3842 21.1059 12.4883 20.8438 12.4883Z" fill="white"/>
<path d="M4.3125 12.4883H2.15625C1.89414 12.4883 1.64277 12.3842 1.45743 12.1988C1.27209 12.0135 1.16797 11.7621 1.16797 11.5C1.16797 11.2379 1.27209 10.9865 1.45743 10.8012C1.64277 10.6158 1.89414 10.5117 2.15625 10.5117H4.3125C4.57461 10.5117 4.82598 10.6158 5.01132 10.8012C5.19666 10.9865 5.30078 11.2379 5.30078 11.5C5.30078 11.7621 5.19666 12.0135 5.01132 12.1988C4.82598 12.3842 4.57461 12.4883 4.3125 12.4883Z" fill="white"/>
<path d="M18.1071 19.0955C17.9772 19.0956 17.8486 19.0701 17.7287 19.0204C17.6087 18.9707 17.4998 18.8977 17.4081 18.8058L15.8835 17.2811C15.7022 17.095 15.6015 16.8449 15.6032 16.585C15.6049 16.3252 15.7089 16.0765 15.8926 15.8927C16.0764 15.709 16.3251 15.605 16.5849 15.6033C16.8448 15.6016 17.0948 15.7023 17.281 15.8836L18.8056 17.4082C18.9439 17.5464 19.0381 17.7225 19.0762 17.9142C19.1144 18.1059 19.0949 18.3046 19.0201 18.4853C18.9453 18.6659 18.8187 18.8202 18.6562 18.9289C18.4936 19.0375 18.3026 19.0955 18.1071 19.0955Z" fill="white"/>
<path d="M6.41756 7.40585C6.2878 7.4061 6.15927 7.38067 6.03938 7.33102C5.91949 7.28136 5.81062 7.20847 5.71903 7.11655L4.19438 5.5919C4.01307 5.40575 3.91237 5.15568 3.91408 4.89584C3.9158 4.63599 4.01978 4.38727 4.20352 4.20352C4.38727 4.01978 4.63599 3.9158 4.89584 3.91408C5.15568 3.91237 5.40575 4.01307 5.5919 4.19438L7.11655 5.71903C7.25467 5.85727 7.34872 6.03335 7.38679 6.22503C7.42486 6.4167 7.40525 6.61536 7.33044 6.79589C7.25563 6.97643 7.12898 7.13073 6.96649 7.2393C6.80401 7.34786 6.61298 7.40582 6.41756 7.40585Z" fill="white"/>
<path d="M11.5 16.082C10.5938 16.082 9.70787 15.8133 8.95436 15.3098C8.20085 14.8063 7.61356 14.0907 7.26676 13.2535C6.91995 12.4162 6.82921 11.4949 7.00601 10.6061C7.18281 9.71726 7.61921 8.90082 8.26002 8.26002C8.90082 7.61921 9.71726 7.18281 10.6061 7.00601C11.4949 6.82921 12.4162 6.91995 13.2535 7.26676C14.0907 7.61356 14.8063 8.20085 15.3098 8.95436C15.8133 9.70787 16.082 10.5938 16.082 11.5C16.0806 12.7148 15.5974 13.8794 14.7384 14.7384C13.8794 15.5974 12.7148 16.0806 11.5 16.082Z" fill="white"/>
</svg>
