<svg width="38" height="37" viewBox="0 0 38 37" fill="none" xmlns="http://www.w3.org/2000/svg">
<path d="M30.0319 22.9202C29.254 22.1314 28.3156 21.7098 27.3211 21.7098C26.3346 21.7098 25.3883 22.1236 24.5782 22.9124L22.0438 25.3722C21.8353 25.2629 21.6268 25.1614 21.4263 25.0599C21.1376 24.9193 20.8649 24.7865 20.6323 24.646C18.2583 23.1779 16.1009 21.2646 14.0317 18.7891C13.0292 17.5553 12.3555 16.5167 11.8663 15.4625C12.5239 14.8768 13.1334 14.2677 13.7269 13.682C13.9515 13.4633 14.1761 13.2369 14.4006 13.0182C16.0849 11.3783 16.0849 9.25423 14.4006 7.61432L12.2111 5.48243C11.9625 5.24035 11.7059 4.99046 11.4653 4.74057C10.984 4.2564 10.4788 3.75662 9.95747 3.28808C9.17951 2.5384 8.24917 2.14014 7.27071 2.14014C6.29225 2.14014 5.34587 2.5384 4.54386 3.28808C4.53584 3.29588 4.53584 3.29588 4.52782 3.30369L1.80096 5.98222C0.774384 6.98178 0.188912 8.2 0.0605897 9.61345C-0.131894 11.8937 0.55784 14.0178 1.08717 15.4078C2.38644 18.8204 4.32731 21.9831 7.22259 25.3722C10.7354 29.4564 14.962 32.6815 19.7902 34.954C21.6348 35.8052 24.097 36.8126 26.8479 36.9844C27.0163 36.9922 27.1928 37 27.3532 37C29.2058 37 30.7618 36.3518 31.9808 35.0633C31.9888 35.0477 32.0049 35.0399 32.0129 35.0243C32.43 34.5323 32.9112 34.0872 33.4164 33.6108C33.7613 33.2907 34.1142 32.9549 34.4591 32.6035C35.253 31.7991 35.6701 30.862 35.6701 29.9015C35.6701 28.9332 35.245 28.0039 34.435 27.223L30.0319 22.9202ZM32.9031 31.1432C32.8951 31.1432 32.8951 31.151 32.9031 31.1432C32.5904 31.4711 32.2695 31.7679 31.9247 32.0959C31.4034 32.58 30.874 33.0876 30.3768 33.6577C29.5668 34.5011 28.6124 34.8993 27.3612 34.8993C27.2409 34.8993 27.1126 34.8993 26.9923 34.8915C24.6103 34.7431 22.3967 33.8373 20.7366 33.0642C16.1971 30.9245 12.2111 27.8868 8.8988 24.0369C6.16393 20.8273 4.33533 17.8599 3.12429 14.6737C2.37842 12.7293 2.10573 11.2143 2.22603 9.78525C2.30623 8.87159 2.66714 8.1141 3.33281 7.46595L6.06769 4.80304C6.46068 4.44382 6.87773 4.24859 7.28675 4.24859C7.79202 4.24859 8.20105 4.54534 8.4577 4.79523C8.46572 4.80304 8.47374 4.81085 8.48176 4.81866C8.97099 5.26378 9.43616 5.72452 9.92538 6.21649C10.174 6.46638 10.4307 6.71627 10.6873 6.97397L12.8768 9.10586C13.7269 9.93362 13.7269 10.6989 12.8768 11.5267C12.6442 11.7531 12.4197 11.9796 12.1871 12.1983C11.5134 12.8698 10.8718 13.4946 10.174 14.1037C10.158 14.1193 10.1419 14.1271 10.1339 14.1427C9.44418 14.8143 9.5725 15.4703 9.71686 15.9154C9.72488 15.9388 9.7329 15.9623 9.74092 15.9857C10.3104 17.3288 11.1124 18.5939 12.3314 20.1011L12.3395 20.1089C14.553 22.764 16.8869 24.8334 19.4614 26.4186C19.7902 26.6217 20.127 26.7857 20.4478 26.9419C20.7366 27.0824 21.0092 27.2152 21.2418 27.3557C21.2739 27.3714 21.306 27.3948 21.3381 27.4104C21.6108 27.5432 21.8674 27.6056 22.1321 27.6056C22.7977 27.6056 23.2148 27.1996 23.3511 27.0668L26.094 24.3961C26.3667 24.1306 26.7998 23.8104 27.3051 23.8104C27.8023 23.8104 28.2113 24.115 28.46 24.3805C28.468 24.3883 28.468 24.3883 28.476 24.3961L32.8951 28.6989C33.7212 29.4954 33.7212 30.3154 32.9031 31.1432Z" fill="black"/>
<path d="M20.536 8.80142C22.6373 9.14502 24.5461 10.1133 26.0699 11.5971C27.5937 13.0808 28.5802 14.9394 28.9411 16.9854C29.0293 17.5008 29.4865 17.86 30.0078 17.86C30.072 17.86 30.1281 17.8522 30.1923 17.8444C30.7858 17.7507 31.1788 17.204 31.0825 16.6261C30.6494 14.1507 29.4464 11.8938 27.6098 10.1055C25.7732 8.31725 23.4553 7.14589 20.9129 6.7242C20.3195 6.63049 19.7661 7.01313 19.6618 7.5832C19.5575 8.15326 19.9425 8.70771 20.536 8.80142Z" fill="black"/>
<path d="M37.9559 16.3215C37.2421 12.2451 35.2691 8.5358 32.2375 5.58396C29.2059 2.63212 25.3963 0.711082 21.2098 0.0160723C20.6243 -0.085446 20.0709 0.305009 19.9666 0.875074C19.8704 1.45295 20.2634 1.99178 20.8569 2.09329C24.5943 2.71021 28.0028 4.43602 30.7136 7.06769C33.4245 9.70717 35.1889 13.026 35.8225 16.6651C35.9107 17.1805 36.3679 17.5397 36.8892 17.5397C36.9533 17.5397 37.0095 17.5319 37.0736 17.5241C37.6591 17.4382 38.0601 16.8915 37.9559 16.3215Z" fill="black"/>
</svg>
