<svg width="24" height="20" viewBox="0 0 24 20" fill="none" xmlns="http://www.w3.org/2000/svg">
<path d="M23.6183 2.34069C23.085 2.57715 22.5315 2.76369 21.9635 2.89874C22.5894 2.304 23.0599 1.56011 23.3254 0.729788C23.4012 0.492746 23.1437 0.28777 22.9297 0.414687C22.1395 0.883388 21.2884 1.235 20.3998 1.45987C20.3483 1.47292 20.2951 1.47953 20.2417 1.47953C20.0799 1.47953 19.9225 1.41944 19.7988 1.31037C18.8534 0.477181 17.6375 0.0183105 16.3752 0.0183105C15.829 0.0183105 15.2775 0.103449 14.736 0.271386C13.0582 0.791755 11.7637 2.17568 11.3576 3.88313C11.2052 4.52357 11.164 5.1646 11.2349 5.78836C11.243 5.86004 11.2091 5.91007 11.1882 5.93354C11.1515 5.97467 11.0995 5.99825 11.0455 5.99825C11.0395 5.99825 11.0333 5.99796 11.0271 5.99738C7.35466 5.65618 4.04298 3.88688 1.70211 1.01546C1.58274 0.868994 1.35383 0.886958 1.25868 1.05015C0.800282 1.83659 0.558032 2.73607 0.558032 3.65136C0.558032 5.05407 1.12158 6.37597 2.10047 7.33964C1.68882 7.24204 1.2904 7.08832 0.920295 6.88276C0.741241 6.78328 0.520934 6.91114 0.518418 7.11594C0.492788 9.19976 1.71281 11.054 3.54045 11.8889C3.50365 11.8898 3.46684 11.8902 3.42998 11.8902C3.14027 11.8902 2.84694 11.8622 2.55823 11.807C2.35659 11.7685 2.18719 11.9598 2.2498 12.1553C2.84302 14.0074 4.43766 15.3725 6.34593 15.6825C4.76218 16.7456 2.91786 17.3064 0.998295 17.3064L0.399867 17.3061C0.215488 17.3061 0.0595472 17.4262 0.0125601 17.6048C-0.0337248 17.7807 0.0515308 17.9663 0.208759 18.0577C2.3718 19.3166 4.83907 19.9819 7.34489 19.9819C9.5383 19.9819 11.5901 19.5466 13.4432 18.6882C15.1421 17.9012 16.6433 16.7763 17.9052 15.3446C19.0808 14.0109 20 12.4714 20.6374 10.7687C21.2449 9.14569 21.5661 7.41389 21.5661 5.76051V5.68175C21.566 5.41627 21.6861 5.16647 21.8956 4.99643C22.6905 4.35101 23.3827 3.59126 23.9529 2.7383C24.1035 2.51307 23.866 2.2308 23.6183 2.34069Z" fill="black"/>
</svg>
