<svg width="54" height="54" viewBox="0 0 54 54" fill="none" xmlns="http://www.w3.org/2000/svg">
<path d="M47.9386 10.4363H39.1683L37.8263 7.48622C36.8399 5.32549 34.6849 3.93804 32.3096 3.93425H21.0481C18.6723 3.93756 16.5168 5.32549 15.5305 7.48622L14.1889 10.4363H6.06122C2.71524 10.4401 0.00379017 13.1516 1.90735e-06 16.4975V43.9383C0.00379017 47.2843 2.71524 49.9957 6.06122 49.9995H47.9386C51.2845 49.9957 53.996 47.2843 53.9998 43.9383V16.4975C53.996 13.1516 51.2845 10.4401 47.9386 10.4363ZM51.5753 43.9383C51.5729 45.9461 49.9463 47.5727 47.9386 47.575H6.06122C4.05344 47.5727 2.42686 45.9461 2.42449 43.9383V16.4975C2.42686 14.4898 4.05344 12.8632 6.06122 12.8608H14.9693C15.4447 12.8608 15.8757 12.5829 16.0727 12.1505L17.7371 8.48963C18.3295 7.1931 19.6227 6.36063 21.0481 6.35874H32.3096C33.7345 6.36111 35.0272 7.19358 35.6191 8.49011L37.2836 12.151C37.4806 12.5833 37.912 12.8613 38.3869 12.8613H47.9381C49.9454 12.8637 51.5725 14.4907 51.5748 16.498L51.5753 43.9383Z" fill="white"/>
<path d="M26.6784 14.5414C18.517 14.5414 11.9013 21.1576 11.9013 29.3189C11.9013 37.4798 18.517 44.096 26.6784 44.096C34.8397 44.096 41.4559 37.4798 41.4559 29.3189C41.4464 21.1614 34.8359 14.5508 26.6784 14.5414ZM26.6784 41.6715C19.8562 41.6715 14.3258 36.1411 14.3258 29.3189C14.3258 22.4967 19.8562 16.9659 26.6784 16.9659C33.5005 16.9659 39.0314 22.4967 39.0314 29.3189C39.0233 36.1378 33.4977 41.6639 26.6784 41.6715Z" fill="white"/>
<path d="M26.6784 22.7799C23.0672 22.7799 20.1398 25.7072 20.1398 29.3184C20.1398 32.93 23.0672 35.8574 26.6784 35.8574C30.29 35.8574 33.2174 32.93 33.2174 29.3184C33.2131 25.7091 30.2881 22.7836 26.6784 22.7799ZM26.6784 33.4329C24.4063 33.4329 22.5643 31.5909 22.5643 29.3189C22.5643 27.0464 24.4063 25.2043 26.6784 25.2043C28.9508 25.2043 30.7929 27.0464 30.7929 29.3189C30.79 31.5899 28.9499 33.4306 26.6784 33.4329Z" fill="white"/>
</svg>
