<svg width="38" height="30" viewBox="0 0 38 30" fill="none" xmlns="http://www.w3.org/2000/svg">
<path d="M33.3611 0.540771H4.6468C2.08359 0.540771 0 2.62436 0 5.18757V24.8127C0 27.3759 2.08359 29.4595 4.6468 29.4595H33.3532C35.9164 29.4595 38 27.3759 38 24.8127V5.19544C38.0079 2.63223 35.9243 0.540771 33.3611 0.540771ZM35.885 24.8127C35.885 26.2043 34.7527 27.3365 33.3611 27.3365H4.6468C3.25512 27.3365 2.12291 26.2043 2.12291 24.8127V5.19544C2.12291 3.80375 3.25512 2.67154 4.6468 2.67154H33.3532C34.7449 2.67154 35.8771 3.80375 35.8771 5.19544V24.8127H35.885Z" fill="white"/>
<path d="M23.9652 14.7564L33.2588 6.42207C33.6913 6.02893 33.7306 5.36061 33.3375 4.92031C32.9443 4.48786 32.276 4.44855 31.8357 4.84168L19.0196 16.3447L16.5193 14.1117C16.5115 14.1038 16.5036 14.096 16.5036 14.0881C16.4486 14.0331 16.3935 13.9859 16.3306 13.9387L6.1564 4.83382C5.71609 4.44069 5.04777 4.48 4.65464 4.92031C4.26151 5.36061 4.30082 6.02893 4.74113 6.42207L14.1448 14.8272L4.78044 23.594C4.35586 23.995 4.33227 24.6633 4.73327 25.0958C4.94556 25.3159 5.22861 25.4339 5.51167 25.4339C5.77113 25.4339 6.0306 25.3395 6.23503 25.1508L15.7409 16.2582L18.3199 18.5619C18.5243 18.7428 18.7759 18.8293 19.0275 18.8293C19.2791 18.8293 19.5386 18.7349 19.7351 18.5541L22.3848 16.1796L31.8357 25.1587C32.0401 25.3552 32.3074 25.4496 32.5669 25.4496C32.85 25.4496 33.1252 25.3395 33.3375 25.1194C33.7384 24.6948 33.7227 24.0186 33.2981 23.6176L23.9652 14.7564Z" fill="white"/>
</svg>
