<svg width="38" height="37" viewBox="0 0 38 37" fill="none" xmlns="http://www.w3.org/2000/svg">
<path d="M30.032 22.9202C29.254 22.1314 28.3157 21.7098 27.3212 21.7098C26.3347 21.7098 25.3883 22.1236 24.5783 22.9124L22.0439 25.3722C21.8354 25.2629 21.6269 25.1614 21.4263 25.0599C21.1376 24.9193 20.8649 24.7865 20.6324 24.646C18.2584 23.1779 16.101 21.2646 14.0318 18.7891C13.0292 17.5553 12.3555 16.5167 11.8663 15.4625C12.524 14.8768 13.1335 14.2677 13.727 13.682C13.9516 13.4633 14.1761 13.2369 14.4007 13.0182C16.0849 11.3783 16.0849 9.25423 14.4007 7.61432L12.2112 5.48243C11.9626 5.24035 11.7059 4.99046 11.4653 4.74057C10.9841 4.2564 10.4788 3.75662 9.95752 3.28808C9.17956 2.5384 8.24923 2.14014 7.27077 2.14014C6.29231 2.14014 5.34593 2.5384 4.54391 3.28808C4.53589 3.29588 4.53589 3.29588 4.52787 3.30369L1.80102 5.98222C0.774437 6.98178 0.188966 8.2 0.0606431 9.61345C-0.131841 11.8937 0.557893 14.0178 1.08722 15.4078C2.38649 18.8204 4.32737 21.9831 7.22265 25.3722C10.7355 29.4564 14.9621 32.6815 19.7902 34.954C21.6349 35.8052 24.0971 36.8126 26.848 36.9844C27.0164 36.9922 27.1928 37 27.3532 37C29.2059 37 30.7618 36.3518 31.9809 35.0633C31.9889 35.0477 32.0049 35.0399 32.013 35.0243C32.43 34.5323 32.9112 34.0872 33.4165 33.6108C33.7614 33.2907 34.1142 32.9549 34.4591 32.6035C35.2531 31.7991 35.6702 30.862 35.6702 29.9015C35.6702 28.9332 35.2451 28.0039 34.435 27.223L30.032 22.9202ZM32.9032 31.1432C32.8952 31.1432 32.8952 31.151 32.9032 31.1432C32.5904 31.4711 32.2696 31.7679 31.9247 32.0959C31.4034 32.58 30.8741 33.0876 30.3768 33.6577C29.5668 34.5011 28.6124 34.8993 27.3613 34.8993C27.241 34.8993 27.1126 34.8993 26.9923 34.8915C24.6103 34.7431 22.3968 33.8373 20.7366 33.0642C16.1972 30.9245 12.2112 27.8868 8.89886 24.0369C6.16398 20.8273 4.33539 17.8599 3.12434 14.6737C2.37847 12.7293 2.10578 11.2143 2.22609 9.78525C2.30629 8.87159 2.66719 8.1141 3.33287 7.46595L6.06774 4.80304C6.46073 4.44382 6.87778 4.24859 7.28681 4.24859C7.79208 4.24859 8.2011 4.54534 8.45775 4.79523C8.46577 4.80304 8.47379 4.81085 8.48181 4.81866C8.97104 5.26378 9.43621 5.72452 9.92544 6.21649C10.1741 6.46638 10.4307 6.71627 10.6874 6.97397L12.8769 9.10586C13.727 9.93362 13.727 10.6989 12.8769 11.5267C12.6443 11.7531 12.4197 11.9796 12.1871 12.1983C11.5134 12.8698 10.8718 13.4946 10.1741 14.1037C10.158 14.1193 10.142 14.1271 10.134 14.1427C9.44423 14.8143 9.57255 15.4703 9.71691 15.9154C9.72493 15.9388 9.73295 15.9623 9.74098 15.9857C10.3104 17.3288 11.1124 18.5939 12.3315 20.1011L12.3395 20.1089C14.5531 22.764 16.8869 24.8334 19.4614 26.4186C19.7902 26.6217 20.1271 26.7857 20.4479 26.9419C20.7366 27.0824 21.0093 27.2152 21.2419 27.3557C21.274 27.3714 21.306 27.3948 21.3381 27.4104C21.6108 27.5432 21.8675 27.6056 22.1321 27.6056C22.7978 27.6056 23.2148 27.1996 23.3512 27.0668L26.0941 24.3961C26.3668 24.1306 26.7999 23.8104 27.3051 23.8104C27.8024 23.8104 28.2114 24.115 28.46 24.3805C28.468 24.3883 28.468 24.3883 28.4761 24.3961L32.8952 28.6989C33.7212 29.4954 33.7213 30.3154 32.9032 31.1432Z" fill="white"/>
<path d="M20.5361 8.80142C22.6374 9.14502 24.5462 10.1133 26.07 11.5971C27.5939 13.0808 28.5803 14.9394 28.9412 16.9854C29.0295 17.5008 29.4866 17.86 30.0079 17.86C30.0721 17.86 30.1282 17.8522 30.1924 17.8444C30.7859 17.7507 31.1789 17.204 31.0826 16.6261C30.6495 14.1507 29.4465 11.8938 27.6099 10.1055C25.7733 8.31725 23.4555 7.14589 20.9131 6.7242C20.3196 6.63049 19.7662 7.01313 19.6619 7.5832C19.5577 8.15326 19.9426 8.70771 20.5361 8.80142Z" fill="white"/>
<path d="M37.9559 16.3215C37.2421 12.2451 35.2691 8.5358 32.2375 5.58396C29.2059 2.63212 25.3963 0.711082 21.2098 0.0160723C20.6243 -0.085446 20.0709 0.305009 19.9667 0.875074C19.8704 1.45295 20.2634 1.99178 20.8569 2.09329C24.5943 2.71021 28.0029 4.43602 30.7137 7.06769C33.4245 9.70717 35.1889 13.026 35.8225 16.6651C35.9107 17.1805 36.3679 17.5397 36.8892 17.5397C36.9534 17.5397 37.0095 17.5319 37.0737 17.5241C37.6591 17.4382 38.0601 16.8915 37.9559 16.3215Z" fill="white"/>
</svg>
